<mxfile host="app.diagrams.net" modified="2023-10-02T14:35:28.030Z" agent="Mozilla/5.0 (Windows NT 10.0; Win64; x64; rv:109.0) Gecko/20100101 Firefox/117.0" etag="3bNu6j8vW3fmGxxVYtT1" version="21.7.4" type="device">
  <diagram name="Page-1" id="VZIIqRRXdtm2IghGHygO">
    <mxGraphModel dx="1588" dy="808" grid="1" gridSize="10" guides="1" tooltips="1" connect="1" arrows="1" fold="1" page="1" pageScale="1" pageWidth="1100" pageHeight="850" math="0" shadow="0">
      <root>
        <mxCell id="0" />
        <mxCell id="1" parent="0" />
        <mxCell id="HxMLQ8BKsvM3NlbKGZ2k-1" value="Registers" style="rounded=1;whiteSpace=wrap;html=1;" vertex="1" parent="1">
          <mxGeometry x="240" y="60" width="120" height="60" as="geometry" />
        </mxCell>
        <mxCell id="HxMLQ8BKsvM3NlbKGZ2k-2" value="&lt;div&gt;L1 Cache&lt;/div&gt;" style="rounded=1;whiteSpace=wrap;html=1;" vertex="1" parent="1">
          <mxGeometry x="210" y="170" width="180" height="60" as="geometry" />
        </mxCell>
        <mxCell id="HxMLQ8BKsvM3NlbKGZ2k-3" value="L2 Cache" style="rounded=1;whiteSpace=wrap;html=1;" vertex="1" parent="1">
          <mxGeometry x="179.5" y="280" width="240" height="60" as="geometry" />
        </mxCell>
        <mxCell id="HxMLQ8BKsvM3NlbKGZ2k-4" value="L3 Cache" style="rounded=1;whiteSpace=wrap;html=1;" vertex="1" parent="1">
          <mxGeometry x="127.5" y="390" width="345" height="60" as="geometry" />
        </mxCell>
        <mxCell id="HxMLQ8BKsvM3NlbKGZ2k-5" value="Memory (RAM)" style="rounded=1;whiteSpace=wrap;html=1;" vertex="1" parent="1">
          <mxGeometry x="70" y="500" width="460" height="60" as="geometry" />
        </mxCell>
        <mxCell id="HxMLQ8BKsvM3NlbKGZ2k-6" value="Storage (HDD, SSD, NVMe)" style="rounded=1;whiteSpace=wrap;html=1;" vertex="1" parent="1">
          <mxGeometry y="610" width="600" height="60" as="geometry" />
        </mxCell>
        <mxCell id="HxMLQ8BKsvM3NlbKGZ2k-9" value="" style="shape=flexArrow;endArrow=classic;startArrow=classic;html=1;rounded=0;entryX=0.5;entryY=1;entryDx=0;entryDy=0;exitX=0.5;exitY=0;exitDx=0;exitDy=0;" edge="1" parent="1" source="HxMLQ8BKsvM3NlbKGZ2k-2" target="HxMLQ8BKsvM3NlbKGZ2k-1">
          <mxGeometry width="100" height="100" relative="1" as="geometry">
            <mxPoint x="259.5" y="200" as="sourcePoint" />
            <mxPoint x="359.5" y="100" as="targetPoint" />
          </mxGeometry>
        </mxCell>
        <mxCell id="HxMLQ8BKsvM3NlbKGZ2k-10" value="" style="shape=flexArrow;endArrow=classic;startArrow=classic;html=1;rounded=0;entryX=0.5;entryY=1;entryDx=0;entryDy=0;exitX=0.5;exitY=0;exitDx=0;exitDy=0;" edge="1" parent="1" source="HxMLQ8BKsvM3NlbKGZ2k-3" target="HxMLQ8BKsvM3NlbKGZ2k-2">
          <mxGeometry width="100" height="100" relative="1" as="geometry">
            <mxPoint x="279.5" y="330" as="sourcePoint" />
            <mxPoint x="379.5" y="230" as="targetPoint" />
          </mxGeometry>
        </mxCell>
        <mxCell id="HxMLQ8BKsvM3NlbKGZ2k-11" value="" style="shape=flexArrow;endArrow=classic;startArrow=classic;html=1;rounded=0;entryX=0.5;entryY=1;entryDx=0;entryDy=0;" edge="1" parent="1" source="HxMLQ8BKsvM3NlbKGZ2k-4" target="HxMLQ8BKsvM3NlbKGZ2k-3">
          <mxGeometry width="100" height="100" relative="1" as="geometry">
            <mxPoint x="279.5" y="440" as="sourcePoint" />
            <mxPoint x="379.5" y="340" as="targetPoint" />
          </mxGeometry>
        </mxCell>
        <mxCell id="HxMLQ8BKsvM3NlbKGZ2k-12" value="" style="shape=flexArrow;endArrow=classic;startArrow=classic;html=1;rounded=0;entryX=0.5;entryY=1;entryDx=0;entryDy=0;exitX=0.5;exitY=0;exitDx=0;exitDy=0;" edge="1" parent="1" source="HxMLQ8BKsvM3NlbKGZ2k-5" target="HxMLQ8BKsvM3NlbKGZ2k-4">
          <mxGeometry width="100" height="100" relative="1" as="geometry">
            <mxPoint x="309.5" y="400" as="sourcePoint" />
            <mxPoint x="309.5" y="350" as="targetPoint" />
          </mxGeometry>
        </mxCell>
        <mxCell id="HxMLQ8BKsvM3NlbKGZ2k-13" value="" style="shape=flexArrow;endArrow=classic;startArrow=classic;html=1;rounded=0;entryX=0.5;entryY=1;entryDx=0;entryDy=0;" edge="1" parent="1" source="HxMLQ8BKsvM3NlbKGZ2k-6" target="HxMLQ8BKsvM3NlbKGZ2k-5">
          <mxGeometry width="100" height="100" relative="1" as="geometry">
            <mxPoint x="310.5" y="510" as="sourcePoint" />
            <mxPoint x="310.5" y="460" as="targetPoint" />
          </mxGeometry>
        </mxCell>
        <mxCell id="HxMLQ8BKsvM3NlbKGZ2k-15" value="&lt;font style=&quot;font-size: 30px;&quot;&gt;CPU-GPU Hierarchy Simplified&lt;br&gt;&lt;/font&gt;" style="text;html=1;strokeColor=none;fillColor=none;align=center;verticalAlign=middle;whiteSpace=wrap;rounded=0;" vertex="1" parent="1">
          <mxGeometry width="440" height="60" as="geometry" />
        </mxCell>
        <mxCell id="HxMLQ8BKsvM3NlbKGZ2k-16" value="Registers" style="rounded=1;whiteSpace=wrap;html=1;" vertex="1" parent="1">
          <mxGeometry x="790" y="60" width="120" height="60" as="geometry" />
        </mxCell>
        <mxCell id="HxMLQ8BKsvM3NlbKGZ2k-17" value="&lt;div&gt;L1 Cache&lt;/div&gt;" style="rounded=1;whiteSpace=wrap;html=1;" vertex="1" parent="1">
          <mxGeometry x="760" y="170" width="180" height="60" as="geometry" />
        </mxCell>
        <mxCell id="HxMLQ8BKsvM3NlbKGZ2k-18" value="L2 Cache" style="rounded=1;whiteSpace=wrap;html=1;" vertex="1" parent="1">
          <mxGeometry x="729.5" y="280" width="240" height="60" as="geometry" />
        </mxCell>
        <mxCell id="HxMLQ8BKsvM3NlbKGZ2k-20" value="Memory (RAM)" style="rounded=1;whiteSpace=wrap;html=1;" vertex="1" parent="1">
          <mxGeometry x="830" y="390" width="250" height="60" as="geometry" />
        </mxCell>
        <mxCell id="HxMLQ8BKsvM3NlbKGZ2k-22" value="" style="shape=flexArrow;endArrow=classic;startArrow=classic;html=1;rounded=0;entryX=0.5;entryY=1;entryDx=0;entryDy=0;exitX=0.5;exitY=0;exitDx=0;exitDy=0;" edge="1" source="HxMLQ8BKsvM3NlbKGZ2k-17" target="HxMLQ8BKsvM3NlbKGZ2k-16" parent="1">
          <mxGeometry width="100" height="100" relative="1" as="geometry">
            <mxPoint x="809.5" y="200" as="sourcePoint" />
            <mxPoint x="909.5" y="100" as="targetPoint" />
          </mxGeometry>
        </mxCell>
        <mxCell id="HxMLQ8BKsvM3NlbKGZ2k-23" value="" style="shape=flexArrow;endArrow=classic;startArrow=classic;html=1;rounded=0;entryX=0.5;entryY=1;entryDx=0;entryDy=0;exitX=0.5;exitY=0;exitDx=0;exitDy=0;" edge="1" source="HxMLQ8BKsvM3NlbKGZ2k-18" target="HxMLQ8BKsvM3NlbKGZ2k-17" parent="1">
          <mxGeometry width="100" height="100" relative="1" as="geometry">
            <mxPoint x="829.5" y="330" as="sourcePoint" />
            <mxPoint x="929.5" y="230" as="targetPoint" />
          </mxGeometry>
        </mxCell>
        <mxCell id="HxMLQ8BKsvM3NlbKGZ2k-25" value="" style="shape=flexArrow;endArrow=classic;startArrow=classic;html=1;rounded=0;entryX=0.5;entryY=1;entryDx=0;entryDy=0;exitX=0.25;exitY=0;exitDx=0;exitDy=0;" edge="1" source="HxMLQ8BKsvM3NlbKGZ2k-20" parent="1">
          <mxGeometry width="100" height="100" relative="1" as="geometry">
            <mxPoint x="950" y="390" as="sourcePoint" />
            <mxPoint x="840" y="340" as="targetPoint" />
          </mxGeometry>
        </mxCell>
        <mxCell id="HxMLQ8BKsvM3NlbKGZ2k-28" value="Staging Memory" style="rounded=1;whiteSpace=wrap;html=1;" vertex="1" parent="1">
          <mxGeometry x="630" y="390" width="150" height="60" as="geometry" />
        </mxCell>
        <mxCell id="HxMLQ8BKsvM3NlbKGZ2k-29" value="" style="shape=flexArrow;endArrow=classic;startArrow=classic;html=1;rounded=0;entryX=0;entryY=0.5;entryDx=0;entryDy=0;exitX=1;exitY=0.5;exitDx=0;exitDy=0;" edge="1" parent="1" source="HxMLQ8BKsvM3NlbKGZ2k-28" target="HxMLQ8BKsvM3NlbKGZ2k-20">
          <mxGeometry width="100" height="100" relative="1" as="geometry">
            <mxPoint x="800" y="470" as="sourcePoint" />
            <mxPoint x="800" y="420" as="targetPoint" />
          </mxGeometry>
        </mxCell>
        <mxCell id="HxMLQ8BKsvM3NlbKGZ2k-30" value="" style="shape=flexArrow;endArrow=classic;startArrow=classic;html=1;rounded=0;entryX=0.5;entryY=1;entryDx=0;entryDy=0;exitX=1;exitY=0.5;exitDx=0;exitDy=0;fillColor=#f8cecc;strokeColor=#b85450;" edge="1" parent="1" source="HxMLQ8BKsvM3NlbKGZ2k-6" target="HxMLQ8BKsvM3NlbKGZ2k-28">
          <mxGeometry width="100" height="100" relative="1" as="geometry">
            <mxPoint x="658" y="620" as="sourcePoint" />
            <mxPoint x="658" y="570" as="targetPoint" />
          </mxGeometry>
        </mxCell>
        <mxCell id="HxMLQ8BKsvM3NlbKGZ2k-31" value="&lt;div&gt;DirectStorage&lt;/div&gt;&lt;div&gt;(Sometimes available)&lt;br&gt;&lt;/div&gt;" style="text;html=1;strokeColor=none;fillColor=none;align=center;verticalAlign=middle;whiteSpace=wrap;rounded=0;" vertex="1" parent="1">
          <mxGeometry x="670" y="540" width="140" height="30" as="geometry" />
        </mxCell>
        <mxCell id="HxMLQ8BKsvM3NlbKGZ2k-32" value="" style="shape=flexArrow;endArrow=classic;startArrow=classic;html=1;rounded=0;entryX=0;entryY=0.5;entryDx=0;entryDy=0;exitX=1;exitY=0.5;exitDx=0;exitDy=0;" edge="1" parent="1" source="HxMLQ8BKsvM3NlbKGZ2k-5" target="HxMLQ8BKsvM3NlbKGZ2k-28">
          <mxGeometry width="100" height="100" relative="1" as="geometry">
            <mxPoint x="540" y="430" as="sourcePoint" />
            <mxPoint x="590" y="430" as="targetPoint" />
          </mxGeometry>
        </mxCell>
        <mxCell id="HxMLQ8BKsvM3NlbKGZ2k-33" value="May need a roundtrip and have every element copied to a CPU-side staging buffer" style="text;html=1;strokeColor=none;fillColor=none;align=center;verticalAlign=middle;whiteSpace=wrap;rounded=0;" vertex="1" parent="1">
          <mxGeometry x="500" y="372.5" width="86" height="95" as="geometry" />
        </mxCell>
      </root>
    </mxGraphModel>
  </diagram>
</mxfile>
